# xmcd
#
# Track frame offsets: 
#        150
#        9753
#        17888
#        27620
#        43194
#        53669
#        65500
#        77955
#        87070
#        99439
#
# Disc length: 1477 seconds
#
# Revision: 0
# Processed by: cddbd v1.5.1PL0 Copyright (c) Steve Scherf et al.
# Submitted via: ExactAudioCopy v0.95b2
#
DISCID=7405c30a
DTITLE=TrueGrass - Live At The Rex!
DYEAR=2005
DGENRE=Bluegrass
TTITLE0=Arab Bounce  TrueGrass - Arab Bounce  TrueGrass
TTITLE1=Beautiful Life                True Grass - Beautiful Life     
TTITLE1= True Grass
TTITLE2=Fire Ball   Mail        True Grass - Fire Ball   Mail        T
TTITLE2=rue Grass
TTITLE3=Good Bye To The Moonlight Motor Inn     True Grass - Good Bye 
TTITLE3=To The Moonlight Motor Inn     True Grass
TTITLE4=Little Girl In Tennessee             True Grass - Little Girl 
TTITLE4=In Tennessee             True Grass
TTITLE5=Rock Hearts               True Grass - Rock Hearts            
TTITLE5=True Grass
TTITLE6=Somehow Tonight      True Grass - Somehow Tonight      True Gr
TTITLE6=ass
TTITLE7=Sweet Little Miss Blue Eyes             True Grass - Sweet Lit
TTITLE7=tle Miss Blue Eyes             True Grass
TTITLE8=Tennessee       True Grass - Tennessee       True Grass
TTITLE9=Your Love Is Like A Flower              True Grass - Your Love
TTITLE9=Is Like A Flower              True Grass
EXTD=
EXTT0=
EXTT1=
EXTT2=
EXTT3=
EXTT4=
EXTT5=
EXTT6=
EXTT7=
EXTT8=
EXTT9=
PLAYORDER=
